Coordinates
version=1
nRows=4
nColumns=63
inDegrees=yes

Units are S.I. units (second, meters, Newtons, ...)
If the header above contains a line with 'inDegrees', this indicates whether rotational values are in degrees (yes) or radians (no).

endheader
time	pelvis_tilt	pelvis_list	pelvis_rotation	pelvis_tx	pelvis_ty	pelvis_tz	hip_flexion_r	hip_adduction_r	hip_rotation_r	knee_angle_r	knee_angle_r_beta	ankle_angle_r	subtalar_angle_r	mtp_angle_r	hip_flexion_l	hip_adduction_l	hip_rotation_l	knee_angle_l	knee_angle_l_beta	ankle_angle_l	subtalar_angle_l	mtp_angle_l	L5_S1_Flex_Ext	L5_S1_Lat_Bending	L5_S1_axial_rotation	L4_L5_Flex_Ext	L4_L5_Lat_Bending	L4_L5_axial_rotation	L3_L4_Flex_Ext	L3_L4_Lat_Bending	L3_L4_axial_rotation	L2_L3_Flex_Ext	L2_L3_Lat_Bending	L2_L3_axial_rotation	L1_L2_Flex_Ext	L1_L2_Lat_Bending	L1_L2_axial_rotation	L1_T12_Flex_Ext	L1_T12_Lat_Bending	L1_T12_axial_rotation	Abs_r3	Abs_r2	Abs_r1	Abs_t1	Abs_t2	neck_flexion	neck_bending	neck_rotation	arm_flex_r	arm_add_r	arm_rot_r	elbow_flex_r	pro_sup_r	wrist_flex_r	wrist_dev_r	arm_flex_l	arm_add_l	arm_rot_l	elbow_flex_l	pro_sup_l	wrist_flex_l	wrist_dev_l
      3.67500000	     -1.58630121	      1.37743343	     99.43657859	      0.24393023	      0.85878963	      0.61138889	     -4.40212804	      0.70039823	      0.54510913	     14.35406601	      0.25052571	     16.80170255	    -11.97018186	      0.00000000	      0.31012261	      1.93929347	      3.36106628	     22.13595954	      0.38634538	     16.97353093	     -9.91315910	      0.00000000	      0.01592837	     -0.24028786	      0.70162008	      0.02958057	     -0.31958286	      0.74547133	      0.02616872	     -0.58423591	      0.74547133	      0.01820453	     -0.58423591	      0.61391757	      0.01479108	     -0.48999501	      0.57006631	      0.00910147	     -0.37220590	      0.52621506	      0.11377474	     -2.71818438	      3.90220038	      0.00000000	      0.00000000	     12.04598051	     -2.91227602	     -2.86766945	      4.57966039	    -13.21957636	     83.07939331	     18.54598972	     66.75709848	    -16.90696534	     -8.39359131	     -0.17323170	    -17.87481428	     59.75130334	     23.30272571	     80.75163931	    -19.76244429	     -8.06144729
      3.70000000	     -1.60299495	      0.55450942	    100.28110206	      0.24215451	      0.85862531	      0.61449608	     -4.51080862	      0.50389446	     -0.42383654	     12.25462255	      0.21388351	     16.65135622	    -10.79570319	      0.00000000	      0.55670026	      2.29100443	      4.85955970	     20.48227148	      0.35748308	     15.92968710	    -10.82254708	      0.00000000	      0.00383982	     -0.23559598	      0.67010328	      0.00713093	     -0.31334266	      0.71198473	      0.00630844	     -0.57282808	      0.71198473	      0.00438853	     -0.57282808	      0.58634037	      0.00356565	     -0.48042733	      0.54445891	      0.00219407	     -0.36493818	      0.50257746	      0.02742743	     -2.66510889	      3.72691339	      0.00000000	      0.00000000	     12.68773369	     -3.54169666	     -4.13556627	      3.11320839	    -13.93774287	     71.34877890	     20.52353079	     81.90051792	    -17.12857712	     -5.12155264	      0.05214764	    -18.24966715	     57.89985548	     24.61514322	     84.36920983	    -20.90687465	     -7.54024654
      3.72500000	     -1.64779547	     -0.17732492	    101.06546280	      0.24087260	      0.85841308	      0.61775169	     -4.57924658	      0.36125736	     -0.80983792	     10.44555308	      0.18230929	     16.23174745	    -10.41179295	      0.00000000	      0.76014661	      2.52406202	      5.68482297	     18.92859913	      0.33036638	     15.13891545	    -10.68793904	      0.00000000	     -0.02525363	     -0.23594671	      0.63467815	     -0.04689852	     -0.31380912	      0.67434554	     -0.04148919	     -0.57368082	      0.67434554	     -0.02886237	     -0.57368082	      0.55534339	     -0.02345052	     -0.48114253	      0.51567600	     -0.01442992	     -0.36548145	      0.47600862	     -0.18038415	     -2.66907634	      3.52988949	      0.00000000	      0.00000000	     13.51699723	     -4.25990495	     -5.36488066	      3.25998279	    -14.13002183	     71.58597019	     20.65469924	     82.69624598	    -17.96479135	     -5.19070506	      0.63573334	    -18.67348193	     57.77806276	     25.62188434	     84.90021336	    -21.75885088	     -7.99444183
      3.75000000	     -1.58721672	     -0.90673999	    101.96687603	      0.23916040	      0.85768128	      0.62141269	     -4.43576820	      0.24688184	     -2.13731032	      9.06766241	      0.15826056	     16.19025591	     -9.04257040	      0.00000000	      1.18091597	      2.85528166	      7.75502378	     17.75549835	      0.30989191	     14.17000606	    -12.12708523	      0.00000000	     -0.05692930	     -0.22753319	      0.52690949	     -0.10572340	     -0.30261914	      0.55984133	     -0.09352914	     -0.55322419	      0.55984133	     -0.06506449	     -0.55322419	      0.46104580	     -0.05286455	     -0.46398567	      0.42811396	     -0.03252940	     -0.35244891	      0.39518212	     -0.40664028	     -2.57390092	      2.93051251	      0.00000000	      0.00000000	     14.58267366	     -5.28861844	     -7.23079022	      3.41000869	    -14.40621243	     71.04945406	     21.00422408	     84.25619270	    -18.86826727	     -4.87307168	      1.01831237	    -18.84707322	     56.81862052	     26.49790391	     86.04304877	    -23.07317395	     -8.25922731
